ffmpeg started on 2025-06-19 at 09:35:57
Report written to "D:\Convert\FFMetrics\reports\ssim_report-6.txt"
Log level: 32
Command line:
ffmpeg -hide_banner -nostdin -i "G:\\\xc0\xed\xe8\xec\xe5\\[\xd2\xee\xef-4]\\Fate\\\xc4\xee\xef\xee\xeb\xed\xe5\xed\xe8\xe5 - \xcf\xee\xf1\xeb\xe5\xe4\xed\xe8\xe9 \xe2\xfb\xe7\xee\xe2 \xed\xe0 \xe1\xe8\xf1\\Fate_Extra_Last_Encore_[01]_[AniLibria_TV]_[HDTV-Rip_720p]_HEVC.mkv" -i "G:\\\xc0\xed\xe8\xec\xe5\\[\xd2\xee\xef-4]\\Fate\\\xc4\xee\xef\xee\xeb\xed\xe5\xed\xe8\xe5 - \xcf\xee\xf1\xeb\xe5\xe4\xed\xe8\xe9 \xe2\xfb\xe7\xee\xe2 \xed\xe0 \xe1\xe8\xf1\\Fate_Extra_Last_Encore_[01]_[AniLibria_TV]_[HDTV-Rip_720p].mkv" -lavfi "[0:v]settb=AVTB,setpts=PTS-STARTPTS,format=pix_fmts=yuv420p10,fps=24000/1001,scale=1280:720:flags=bicubic[main];[1:v]settb=AVTB,setpts=PTS-STARTPTS,format=pix_fmts=yuv420p,fps=24000/1001,scale=1280:720:flags=bicubic[ref];[main][ref]ssim=eof_action=endall:stats_file='D\\:/Convert/FFMetrics/logs/ssim_logfile-6.txt'" -f null -
Input #0, matroska,webm, from 'G:\Аниме\[Топ-4]\Fate\Дополнение - Последний вызов на бис\Fate_Extra_Last_Encore_[01]_[AniLibria_TV]_[HDTV-Rip_720p]_HEVC.mkv':
  Metadata:
    ENCODER         : Lavf61.7.100
  Duration: 00:24:00.11, start: -0.021000, bitrate: 944 kb/s
  Stream #0:0(jpn): Video: hevc (Main 10), yuv420p10le(tv, bt709, progressive), 1280x720 [SAR 1:1 DAR 16:9], 23.81 fps, 23.81 tbr, 1k tbn (default)
      Metadata:
        ENCODER         : Lavc61.19.100 libx265
        BPS             : 746589
        DURATION        : 00:24:00.012000000
        NUMBER_OF_FRAMES: 34525
        NUMBER_OF_BYTES : 134387145
        _STATISTICS_WRITING_APP: mkvpropedit v66.0.0 ('Josie') 64-bit
        _STATISTICS_WRITING_DATE_UTC: 2025-06-17 11:34:22
        _STATISTICS_TAGS: BPS DURATION NUMBER_OF_FRAMES NUMBER_OF_BYTES
  Stream #0:1(rus): Audio: aac (LC), 48000 Hz, stereo, fltp (default)
      Metadata:
        title           : Ados Amikiri Anzen Hekomi Silv
        ENCODER         : Lavc61.19.100 aac
        BPS             : 193812
        DURATION        : 00:24:00.085000000
        NUMBER_OF_FRAMES: 67505
        NUMBER_OF_BYTES : 34888344
        _STATISTICS_WRITING_APP: mkvpropedit v66.0.0 ('Josie') 64-bit
        _STATISTICS_WRITING_DATE_UTC: 2025-06-17 11:34:22
        _STATISTICS_TAGS: BPS DURATION NUMBER_OF_FRAMES NUMBER_OF_BYTES
  Stream #0:2(rus): Subtitle: ass (ssa) (default) (forced)
      Metadata:
        title           : Надписи
        BPS             : 17
        DURATION        : 00:20:18.990000000
        NUMBER_OF_FRAMES: 18
        NUMBER_OF_BYTES : 2673
        _STATISTICS_WRITING_APP: mkvpropedit v66.0.0 ('Josie') 64-bit
        _STATISTICS_WRITING_DATE_UTC: 2025-06-17 11:34:22
        _STATISTICS_TAGS: BPS DURATION NUMBER_OF_FRAMES NUMBER_OF_BYTES
  Stream #0:3(rus): Subtitle: ass (ssa)
      Metadata:
        title           : Полные
        BPS             : 108
        DURATION        : 00:21:39.920000000
        NUMBER_OF_FRAMES: 184
        NUMBER_OF_BYTES : 17693
        _STATISTICS_WRITING_APP: mkvpropedit v66.0.0 ('Josie') 64-bit
        _STATISTICS_WRITING_DATE_UTC: 2025-06-17 11:34:22
        _STATISTICS_TAGS: BPS DURATION NUMBER_OF_FRAMES NUMBER_OF_BYTES
Input #1, matroska,webm, from 'G:\Аниме\[Топ-4]\Fate\Дополнение - Последний вызов на бис\Fate_Extra_Last_Encore_[01]_[AniLibria_TV]_[HDTV-Rip_720p].mkv':
  Metadata:
    encoder         : libebml v1.4.2 + libmatroska v1.6.4
    creation_time   : 2024-12-27T09:55:57.000000Z
  Duration: 00:24:00.09, start: 0.000000, bitrate: 2250 kb/s
  Stream #1:0(jpn): Video: h264 (Main), yuv420p(tv, bt709, progressive), 1280x720, SAR 1:1 DAR 16:9, 23.81 fps, 23.81 tbr, 1k tbn (default)
      Metadata:
        BPS             : 2046038
        DURATION        : 00:24:00.022000000
        NUMBER_OF_FRAMES: 34525
        NUMBER_OF_BYTES : 368292514
        _STATISTICS_WRITING_APP: mkvmerge v66.0.0 ('Josie') 64-bit
        _STATISTICS_WRITING_DATE_UTC: 2024-12-27 09:55:57
        _STATISTICS_TAGS: BPS DURATION NUMBER_OF_FRAMES NUMBER_OF_BYTES
  Stream #1:1(rus): Audio: aac (LC), 48000 Hz, stereo, fltp (default)
      Metadata:
        title           : Ados Amikiri Anzen Hekomi Silv
        BPS             : 192091
        DURATION        : 00:24:00.085000000
        NUMBER_OF_FRAMES: 67504
        NUMBER_OF_BYTES : 34578598
        _STATISTICS_WRITING_APP: mkvmerge v66.0.0 ('Josie') 64-bit
        _STATISTICS_WRITING_DATE_UTC: 2024-12-27 09:55:57
        _STATISTICS_TAGS: BPS DURATION NUMBER_OF_FRAMES NUMBER_OF_BYTES
  Stream #1:2(rus): Subtitle: ass (ssa) (default) (forced)
      Metadata:
        title           : Надписи
        BPS             : 17
        DURATION        : 00:20:18.990000000
        NUMBER_OF_FRAMES: 18
        NUMBER_OF_BYTES : 2673
        _STATISTICS_WRITING_APP: mkvmerge v66.0.0 ('Josie') 64-bit
        _STATISTICS_WRITING_DATE_UTC: 2024-12-27 09:55:57
        _STATISTICS_TAGS: BPS DURATION NUMBER_OF_FRAMES NUMBER_OF_BYTES
  Stream #1:3(rus): Subtitle: ass (ssa)
      Metadata:
        title           : Полные
        BPS             : 108
        DURATION        : 00:21:39.920000000
        NUMBER_OF_FRAMES: 184
        NUMBER_OF_BYTES : 17693
        _STATISTICS_WRITING_APP: mkvmerge v66.0.0 ('Josie') 64-bit
        _STATISTICS_WRITING_DATE_UTC: 2024-12-27 09:55:57
        _STATISTICS_TAGS: BPS DURATION NUMBER_OF_FRAMES NUMBER_OF_BYTES
  Stream #1:4: Attachment: ttf
      Metadata:
        filename        : BwSurcoDEMO-MediumItalic.otf
        mimetype        : application/x-truetype-font
  Stream #1:5: Attachment: ttf
      Metadata:
        filename        : BwSurcoDEMO-Regular.otf
        mimetype        : application/x-truetype-font
  Stream #1:6: Attachment: ttf
      Metadata:
        filename        : BwSurcoDEMO-RegularItalic.otf
        mimetype        : application/x-truetype-font
  Stream #1:7: Attachment: ttf
      Metadata:
        filename        : KozGoPr6N-Medium_0.otf
        mimetype        : application/x-truetype-font
  Stream #1:8: Attachment: ttf
      Metadata:
        filename        : arx.ttf
        mimetype        : application/x-truetype-font
  Stream #1:9: Attachment: ttf
      Metadata:
        filename        : BwSurcoDEMO-Black.otf
        mimetype        : application/x-truetype-font
  Stream #1:10: Attachment: ttf
      Metadata:
        filename        : BwSurcoDEMO-BlackItalic.otf
        mimetype        : application/x-truetype-font
  Stream #1:11: Attachment: ttf
      Metadata:
        filename        : BwSurcoDEMO-Bold.otf
        mimetype        : application/x-truetype-font
  Stream #1:12: Attachment: ttf
      Metadata:
        filename        : BwSurcoDEMO-BoldItalic.otf
        mimetype        : application/x-truetype-font
  Stream #1:13: Attachment: ttf
      Metadata:
        filename        : BwSurcoDEMO-Book.otf
        mimetype        : application/x-truetype-font
  Stream #1:14: Attachment: ttf
      Metadata:
        filename        : BwSurcoDEMO-BookItalic.otf
        mimetype        : application/x-truetype-font
  Stream #1:15: Attachment: ttf
      Metadata:
        filename        : BwSurcoDEMO-Light.otf
        mimetype        : application/x-truetype-font
  Stream #1:16: Attachment: ttf
      Metadata:
        filename        : BwSurcoDEMO-LightItalic.otf
        mimetype        : application/x-truetype-font
  Stream #1:17: Attachment: ttf
      Metadata:
        filename        : BwSurcoDEMO-Medium.otf
        mimetype        : application/x-truetype-font
Stream mapping:
  Stream #0:0 (hevc) -> settb:default
  Stream #1:0 (h264) -> settb:default
  ssim:default -> Stream #0:0 (wrapped_avframe)
  Stream #0:1 -> #0:1 (aac (native) -> pcm_s16le (native))
Output #0, null, to 'pipe:':
  Metadata:
    encoder         : Lavf61.7.100
  Stream #0:0: Video: wrapped_avframe, yuv420p10le(tv, bt709, progressive), 1280x720 [SAR 1:1 DAR 16:9], q=2-31, 200 kb/s, 23.98 fps, 23.98 tbn
      Metadata:
        encoder         : Lavc61.19.100 wrapped_avframe
  Stream #0:1(rus): Audio: pcm_s16le, 48000 Hz, stereo, s16, 1536 kb/s (default)
      Metadata:
        title           : Ados Amikiri Anzen Hekomi Silv
        _STATISTICS_TAGS: BPS DURATION NUMBER_OF_FRAMES NUMBER_OF_BYTES
        BPS             : 193812
        DURATION        : 00:24:00.085000000
        NUMBER_OF_FRAMES: 67505
        NUMBER_OF_BYTES : 34888344
        _STATISTICS_WRITING_APP: mkvpropedit v66.0.0 ('Josie') 64-bit
        _STATISTICS_WRITING_DATE_UTC: 2025-06-17 11:34:22
        encoder         : Lavc61.19.100 pcm_s16le
frame=  378 fps=0.0 q=-0.0 size=N/A time=00:00:15.76 bitrate=N/A speed=30.3x    frame=  729 fps=707 q=-0.0 size=N/A time=00:00:30.40 bitrate=N/A speed=29.5x    frame= 1045 fps=671 q=-0.0 size=N/A time=00:00:43.58 bitrate=N/A speed=  28x    frame= 1452 fps=702 q=-0.0 size=N/A time=00:01:00.56 bitrate=N/A speed=29.3x    frame= 1900 fps=737 q=-0.0 size=N/A time=00:01:19.24 bitrate=N/A speed=30.7x    frame= 2331 fps=751 q=-0.0 size=N/A time=00:01:37.22 bitrate=N/A speed=31.3x    frame= 2876 fps=797 q=-0.0 size=N/A time=00:01:59.95 bitrate=N/A speed=33.2x    frame= 3278 fps=793 q=-0.0 size=N/A time=00:02:16.71 bitrate=N/A speed=33.1x    frame= 3789 fps=815 q=-0.0 size=N/A time=00:02:38.03 bitrate=N/A speed=  34x    frame= 4359 fps=846 q=-0.0 size=N/A time=00:03:01.80 bitrate=N/A speed=35.3x    frame= 4897 fps=862 q=-0.0 size=N/A time=00:03:24.24 bitrate=N/A speed=  36x    frame= 5441 fps=879 q=-0.0 size=N/A time=00:03:46.93 bitrate=N/A speed=36.7x    frame= 6045 fps=900 q=-0.0 size=N/A time=00:04:12.12 bitrate=N/A speed=37.6x    frame= 6609 fps=915 q=-0.0 size=N/A time=00:04:35.65 bitrate=N/A speed=38.2x    frame= 7100 fps=918 q=-0.0 size=N/A time=00:04:56.12 bitrate=N/A speed=38.3x    frame= 7637 fps=926 q=-0.0 size=N/A time=00:05:18.52 bitrate=N/A speed=38.6x    frame= 8243 fps=940 q=-0.0 size=N/A time=00:05:43.80 bitrate=N/A speed=39.2x    frame= 8750 fps=943 q=-0.0 size=N/A time=00:06:04.94 bitrate=N/A speed=39.3x    frame= 9260 fps=945 q=-0.0 size=N/A time=00:06:26.21 bitrate=N/A speed=39.4x    frame= 9864 fps=957 q=-0.0 size=N/A time=00:06:51.41 bitrate=N/A speed=39.9x    frame=10483 fps=968 q=-0.0 size=N/A time=00:07:17.22 bitrate=N/A speed=40.4x    frame=11072 fps=975 q=-0.0 size=N/A time=00:07:41.79 bitrate=N/A speed=40.7x    frame=11577 fps=976 q=-0.0 size=N/A time=00:08:02.85 bitrate=N/A speed=40.7x    frame=12095 fps=977 q=-0.0 size=N/A time=00:08:24.46 bitrate=N/A speed=40.7x    frame=12554 fps=974 q=-0.0 size=N/A time=00:08:43.60 bitrate=N/A speed=40.6x    frame=12868 fps=960 q=-0.0 size=N/A time=00:08:56.70 bitrate=N/A speed=  40x    frame=13259 fps=952 q=-0.0 size=N/A time=00:09:13.01 bitrate=N/A speed=39.7x    frame=13739 fps=952 q=-0.0 size=N/A time=00:09:33.03 bitrate=N/A speed=39.7x    frame=14316 fps=957 q=-0.0 size=N/A time=00:09:57.09 bitrate=N/A speed=39.9x    frame=14744 fps=953 q=-0.0 size=N/A time=00:10:14.94 bitrate=N/A speed=39.7x    frame=15340 fps=960 q=-0.0 size=N/A time=00:10:39.80 bitrate=N/A speed=  40x    frame=15818 fps=958 q=-0.0 size=N/A time=00:10:59.74 bitrate=N/A speed=  40x    frame=16383 fps=963 q=-0.0 size=N/A time=00:11:23.34 bitrate=N/A speed=40.2x    frame=16794 fps=958 q=-0.0 size=N/A time=00:11:40.44 bitrate=N/A speed=39.9x    frame=17281 fps=958 q=-0.0 size=N/A time=00:12:00.76 bitrate=N/A speed=39.9x    frame=17779 fps=958 q=-0.0 size=N/A time=00:12:21.53 bitrate=N/A speed=39.9x    frame=18191 fps=953 q=-0.0 size=N/A time=00:12:38.71 bitrate=N/A speed=39.7x    frame=18599 fps=949 q=-0.0 size=N/A time=00:12:55.73 bitrate=N/A speed=39.6x    frame=18913 fps=940 q=-0.0 size=N/A time=00:13:08.82 bitrate=N/A speed=39.2x    frame=19182 fps=930 q=-0.0 size=N/A time=00:13:20.04 bitrate=N/A speed=38.8x    frame=19543 fps=924 q=-0.0 size=N/A time=00:13:35.10 bitrate=N/A speed=38.5x    frame=19803 fps=914 q=-0.0 size=N/A time=00:13:45.95 bitrate=N/A speed=38.1x    frame=20169 fps=910 q=-0.0 size=N/A time=00:14:01.21 bitrate=N/A speed=37.9x    frame=20531 fps=905 q=-0.0 size=N/A time=00:14:16.31 bitrate=N/A speed=37.7x    frame=21023 fps=906 q=-0.0 size=N/A time=00:14:36.83 bitrate=N/A speed=37.8x    frame=21429 fps=904 q=-0.0 size=N/A time=00:14:53.76 bitrate=N/A speed=37.7x    frame=21800 fps=899 q=-0.0 size=N/A time=00:15:09.24 bitrate=N/A speed=37.5x    frame=22199 fps=897 q=-0.0 size=N/A time=00:15:25.88 bitrate=N/A speed=37.4x    frame=22581 fps=894 q=-0.0 size=N/A time=00:15:41.81 bitrate=N/A speed=37.3x    frame=23005 fps=892 q=-0.0 size=N/A time=00:15:59.50 bitrate=N/A speed=37.2x    frame=23439 fps=891 q=-0.0 size=N/A time=00:16:17.60 bitrate=N/A speed=37.2x    frame=23937 fps=892 q=-0.0 size=N/A time=00:16:38.37 bitrate=N/A speed=37.2x    frame=24371 fps=892 q=-0.0 size=N/A time=00:16:56.47 bitrate=N/A speed=37.2x    frame=24892 fps=894 q=-0.0 size=N/A time=00:17:18.20 bitrate=N/A speed=37.3x    frame=25481 fps=898 q=-0.0 size=N/A time=00:17:42.77 bitrate=N/A speed=37.5x    frame=25940 fps=898 q=-0.0 size=N/A time=00:18:01.91 bitrate=N/A speed=37.5x    frame=26480 fps=901 q=-0.0 size=N/A time=00:18:24.43 bitrate=N/A speed=37.6x    frame=26979 fps=902 q=-0.0 size=N/A time=00:18:45.24 bitrate=N/A speed=37.6x    frame=27478 fps=903 q=-0.0 size=N/A time=00:19:06.06 bitrate=N/A speed=37.7x    frame=27965 fps=904 q=-0.0 size=N/A time=00:19:26.37 bitrate=N/A speed=37.7x    frame=28375 fps=902 q=-0.0 size=N/A time=00:19:43.47 bitrate=N/A speed=37.6x    frame=28697 fps=897 q=-0.0 size=N/A time=00:19:56.90 bitrate=N/A speed=37.4x    frame=29074 fps=894 q=-0.0 size=N/A time=00:20:12.62 bitrate=N/A speed=37.3x    frame=29480 fps=893 q=-0.0 size=N/A time=00:20:29.56 bitrate=N/A speed=37.2x    frame=29834 fps=890 q=-0.0 size=N/A time=00:20:44.32 bitrate=N/A speed=37.1x    frame=30141 fps=885 q=-0.0 size=N/A time=00:20:57.13 bitrate=N/A speed=36.9x    frame=30440 fps=881 q=-0.0 size=N/A time=00:21:09.60 bitrate=N/A speed=36.7x    frame=30799 fps=878 q=-0.0 size=N/A time=00:21:24.57 bitrate=N/A speed=36.6x    frame=31226 fps=877 q=-0.0 size=N/A time=00:21:42.38 bitrate=N/A speed=36.6x    frame=31809 fps=881 q=-0.0 size=N/A time=00:22:06.70 bitrate=N/A speed=36.7x    frame=32293 fps=882 q=-0.0 size=N/A time=00:22:26.88 bitrate=N/A speed=36.8x    frame=32870 fps=885 q=-0.0 size=N/A time=00:22:50.95 bitrate=N/A speed=36.9x    frame=33329 fps=885 q=-0.0 size=N/A time=00:23:10.09 bitrate=N/A speed=36.9x    frame=33698 fps=883 q=-0.0 size=N/A time=00:23:25.48 bitrate=N/A speed=36.8x    frame=34047 fps=880 q=-0.0 size=N/A time=00:23:40.04 bitrate=N/A speed=36.7x    frame=34495 fps=880 q=-0.0 size=N/A time=00:23:58.72 bitrate=N/A speed=36.7x    [Parsed_ssim_10 @ 0000025508dbea80] SSIM Y:0.989239 (19.681560) U:0.989386 (19.741064) V:0.989141 (19.642272) All:0.989247 (19.684833)
[out#0/null @ 00000255084fd300] video:14835KiB audio:270020KiB subtitle:0KiB other streams:0KiB global headers:0KiB muxing overhead: unknown
frame=34526 fps=880 q=-0.0 Lsize=N/A time=00:24:00.02 bitrate=N/A speed=36.7x    
